<svg width="1088" height="989" viewBox="0 0 1088 989" fill="none" xmlns="http://www.w3.org/2000/svg">
    <path d="M1088 876.476H0V877.099H1088V876.476Z" fill="#EBEBEB"/>
    <path d="M965.905 912.381H835.584V913.004H965.905V912.381Z" fill="#EBEBEB"/>
    <path d="M737.446 898.901H623.054V899.524H737.446V898.901Z" fill="#EBEBEB"/>
    <path d="M823.812 912.082H788.234V912.705H823.812V912.082Z" fill="#EBEBEB"/>
    <path d="M228.001 898.602H122.095V899.225H228.001V898.602Z" fill="#EBEBEB"/>
    <path d="M260.358 898.602H237.663V899.225H260.358V898.602Z" fill="#EBEBEB"/>
    <path d="M440.27 903.959H367.048V904.582H440.27V903.959Z" fill="#EBEBEB"/>
    <path d="M515.712 765.346H95.5482C92.2566 765.34 89.1019 763.838 86.7765 761.17C84.451 758.503 83.145 754.888 83.145 751.119V74.8004C83.1736 71.053 84.4923 67.4698 86.8147 64.8292C89.137 62.1886 92.2754 60.7039 95.5482 60.6975H515.712C519.007 60.6975 522.168 62.1964 524.498 64.8646C526.828 67.5328 528.137 71.1516 528.137 74.925V751.119C528.137 754.892 526.828 758.511 524.498 761.179C522.168 763.847 519.007 765.346 515.712 765.346ZM95.5482 61.1958C92.4009 61.2024 89.3845 62.6387 87.1611 65.1893C84.9377 67.74 83.689 71.1966 83.689 74.8004V751.119C83.689 754.723 84.9377 758.179 87.1611 760.73C89.3845 763.281 92.4009 764.717 95.5482 764.723H515.712C518.861 764.717 521.88 763.281 524.107 760.731C526.334 758.181 527.587 754.725 527.593 751.119V74.8004C527.587 71.1943 526.334 67.7377 524.107 65.1878C521.88 62.6379 518.861 61.2024 515.712 61.1958H95.5482Z" fill="#EBEBEB"/>
    <path d="M986.403 765.346H566.217C562.923 765.34 559.766 763.839 557.438 761.172C555.109 758.505 553.798 754.89 553.792 751.119V74.8004C553.826 71.0507 555.15 67.4676 557.476 64.8277C559.801 62.1878 562.942 60.7038 566.217 60.6975H986.403C989.672 60.7104 992.804 62.1981 995.122 64.838C997.44 67.4779 998.755 71.0573 998.784 74.8004V751.119C998.784 754.884 997.481 758.495 995.16 761.162C992.84 763.828 989.69 765.333 986.403 765.346ZM566.217 61.1958C563.068 61.2024 560.049 62.6379 557.822 65.1878C555.595 67.7377 554.342 71.1943 554.336 74.8004V751.119C554.342 754.725 555.595 758.181 557.822 760.731C560.049 763.281 563.068 764.717 566.217 764.723H986.403C989.552 764.717 992.57 763.281 994.797 760.731C997.024 758.181 998.278 754.725 998.284 751.119V74.8004C998.278 71.1943 997.024 67.7377 994.797 65.1878C992.57 62.6379 989.552 61.2024 986.403 61.1958H566.217Z" fill="#EBEBEB"/>
    <path d="M544 412.648C499.81 412.645 456.052 422.609 415.225 441.972C374.398 461.334 337.302 489.716 306.055 525.497C274.807 561.277 250.021 603.755 233.112 650.505C216.202 697.255 207.5 747.361 207.503 797.962H880.497C880.5 747.361 871.798 697.255 854.888 650.505C837.979 603.755 813.193 561.277 781.945 525.497C750.698 489.716 713.602 461.334 672.775 441.972C631.948 422.609 588.19 412.645 544 412.648Z" fill="#F0F0F0"/>
    <path d="M1051.51 876.476H249.326C249.326 876.476 334.538 811.692 417.792 754.009C501.046 696.327 548.352 696.999 597.421 738.586C646.49 780.172 746.455 745.313 823.725 727.647C972.672 693.586 980.375 837.331 1051.51 876.476Z" fill="#F5F5F5"/>
    <path d="M39.7773 876.475H898.688C898.688 876.475 847.922 876.251 747.108 818.668C646.294 761.086 605.668 767.489 546.176 809.075C486.684 850.662 403.169 757.024 265.472 742.597C105.819 725.978 114.849 876.475 39.7773 876.475Z" fill="#EBEBEB"/>
    <path d="M889.532 138.811C898.615 122.131 894.169 100.178 879.602 89.778C865.036 79.3775 845.864 84.468 836.781 101.148C827.698 117.828 832.144 139.781 846.711 150.181C861.277 160.582 880.449 155.491 889.532 138.811Z" fill="#F0F0F0"/>
    <path d="M150.557 353.221C161.746 353.221 170.816 342.836 170.816 330.024C170.816 317.212 161.746 306.826 150.557 306.826C139.369 306.826 130.299 317.212 130.299 330.024C130.299 342.836 139.369 353.221 150.557 353.221Z" fill="#F0F0F0"/>
    <path d="M951.262 446.881C953.951 433.836 946.895 420.765 935.503 417.687C924.111 414.608 912.696 422.687 910.007 435.732C907.318 448.777 914.374 461.848 925.766 464.927C937.158 468.006 948.573 459.926 951.262 446.881Z" fill="#EBEBEB"/>
    <path d="M333.711 39.4683C343.229 39.4683 350.945 30.633 350.945 19.7342C350.945 8.83529 343.229 0 333.711 0C324.193 0 316.477 8.83529 316.477 19.7342C316.477 30.633 324.193 39.4683 333.711 39.4683Z" fill="#F0F0F0"/>
    <path d="M208.156 132.956C205.979 131.816 203.625 131.187 201.232 131.107C198.84 131.026 196.457 131.496 194.226 132.488C191.994 133.48 189.959 134.974 188.241 136.882C186.522 138.789 185.155 141.073 184.22 143.596C182.029 142.517 179.671 141.949 177.286 141.926C174.9 141.904 172.535 142.426 170.328 143.464C168.121 144.501 166.117 146.032 164.434 147.967C162.75 149.902 161.421 152.203 160.524 154.734C158.822 159.839 158.925 165.502 160.81 170.521C162.695 175.541 166.214 179.522 170.62 181.619L195.796 194.077C197.724 195.018 199.899 195.045 201.845 194.153C203.79 193.261 205.348 191.523 206.176 189.318L217.056 160.49C219.007 155.478 219.168 149.792 217.504 144.647C215.841 139.502 212.486 135.306 208.156 132.956Z" fill="#EBEBEB"/>
    <path d="M965.883 228.089C965.248 225.834 964.228 223.745 962.882 221.946C961.535 220.146 959.89 218.671 958.041 217.607C956.192 216.543 954.177 215.91 952.112 215.746C950.048 215.582 947.976 215.89 946.016 216.652C945.345 214.409 944.291 212.341 942.914 210.57C941.538 208.799 939.866 207.36 937.999 206.337C936.131 205.314 934.103 204.727 932.035 204.612C929.967 204.496 927.899 204.854 925.953 205.664C922.088 207.375 918.958 210.747 917.231 215.061C915.504 219.375 915.315 224.291 916.705 228.762L924.387 254.526C924.967 256.505 926.209 258.141 927.84 259.075C929.471 260.008 931.359 260.165 933.091 259.509L955.59 250.689C959.547 249.212 962.84 246.018 964.764 241.794C966.688 237.569 967.09 232.649 965.883 228.089Z" fill="#F0F0F0"/>
    <path d="M737.49 43.5298C737.49 44.8456 737.149 46.1318 736.511 47.2259C735.872 48.3199 734.965 49.1726 733.903 49.6762C732.842 50.1797 731.673 50.3114 730.546 50.0547C729.419 49.798 728.384 49.1644 727.572 48.234C726.759 47.3036 726.206 46.1182 725.982 44.8277C725.758 43.5371 725.873 42.1995 726.312 40.9838C726.752 39.7682 727.497 38.7292 728.452 37.9982C729.408 37.2671 730.531 36.877 731.68 36.877C732.444 36.8737 733.201 37.0435 733.907 37.3767C734.613 37.7098 735.255 38.1997 735.795 38.8182C736.335 39.4366 736.763 40.1713 737.053 40.98C737.344 41.7886 737.493 42.6552 737.49 43.5298Z" fill="#EBEBEB"/>
    <path d="M715.295 118.505C715.295 119.82 714.954 121.107 714.316 122.201C713.677 123.295 712.77 124.147 711.708 124.651C710.647 125.155 709.478 125.286 708.351 125.03C707.224 124.773 706.189 124.139 705.377 123.209C704.564 122.278 704.011 121.093 703.787 119.803C703.562 118.512 703.677 117.174 704.117 115.959C704.557 114.743 705.302 113.704 706.257 112.973C707.212 112.242 708.336 111.852 709.485 111.852C710.249 111.848 711.005 112.018 711.712 112.352C712.418 112.685 713.059 113.175 713.599 113.793C714.14 114.411 714.567 115.146 714.858 115.955C715.149 116.763 715.298 117.63 715.295 118.505Z" fill="#F0F0F0"/>
    <path d="M187.375 530.156C187.375 531.472 187.035 532.758 186.396 533.852C185.758 534.946 184.85 535.799 183.789 536.302C182.727 536.806 181.559 536.938 180.432 536.681C179.305 536.424 178.27 535.791 177.457 534.86C176.645 533.93 176.091 532.744 175.867 531.454C175.643 530.163 175.758 528.826 176.198 527.61C176.637 526.394 177.382 525.355 178.338 524.624C179.293 523.893 180.416 523.503 181.565 523.503C183.106 523.503 184.584 524.204 185.674 525.452C186.763 526.699 187.375 528.392 187.375 530.156Z" fill="#F0F0F0"/>
    <path d="M933.025 562.797C933.025 564.113 932.685 565.399 932.046 566.493C931.408 567.587 930.5 568.44 929.439 568.944C928.377 569.447 927.209 569.579 926.082 569.322C924.955 569.065 923.92 568.432 923.107 567.501C922.295 566.571 921.741 565.386 921.517 564.095C921.293 562.805 921.408 561.467 921.848 560.251C922.287 559.036 923.032 557.997 923.988 557.266C924.943 556.535 926.066 556.144 927.215 556.144C928.754 556.151 930.229 556.854 931.317 558.1C932.406 559.346 933.02 561.035 933.025 562.797Z" fill="#F0F0F0"/>
    <path d="M544 989C777.011 989 965.905 976.372 965.905 960.794C965.905 945.217 777.011 932.588 544 932.588C310.989 932.588 122.095 945.217 122.095 960.794C122.095 976.372 310.989 989 544 989Z" fill="#F5F5F5"/>
    <path d="M559.244 678.537C758.203 666.916 913.241 517.184 905.531 344.1C897.821 171.017 730.282 40.1254 531.323 51.7462C332.364 63.3669 177.326 213.099 185.037 386.183C192.747 559.266 360.285 690.158 559.244 678.537Z" fill="#407BFF"/>
    <path opacity="0.6" d="M559.244 678.537C758.203 666.916 913.241 517.184 905.531 344.1C897.821 171.017 730.282 40.1254 531.323 51.7462C332.364 63.3669 177.326 213.099 185.037 386.183C192.747 559.266 360.285 690.158 559.244 678.537Z" fill="white"/>
    <path opacity="0.2" d="M887.525 455.605L743.909 443.545L899.189 416.61C903.058 399.238 905.247 381.432 905.716 363.512L740.341 426.178L902.627 314.052C899.562 294.499 894.448 275.441 887.395 257.291L731.093 411.776L862.458 207.707C851.321 190.14 838.625 173.94 824.573 159.368L717.841 402.382L778.769 119.85C760.842 107.055 741.995 96.0353 722.432 86.91L702.456 399.567L658.001 63.5878C634.185 57.3506 609.966 53.3341 585.583 51.5779L687.29 403.728L502.852 53.7706C474.081 57.3539 445.668 64.0278 417.988 73.7041L674.756 414.193L326.4 120.224C298.482 139.24 273.084 162.734 250.98 189.991L666.509 429.467L195.274 296.012C186.876 324.825 183.231 355.175 184.525 385.514C184.829 392.715 185.46 399.816 186.309 406.867L664.05 447.058L228.067 522.656C248.437 554.152 273.479 581.309 302.051 602.888L667.619 464.425L393.682 653.719C421.143 664.063 449.431 671.266 478.132 675.222L676.845 478.827L548.069 678.885C551.638 678.785 555.206 678.636 558.775 678.436C575.69 677.473 592.549 675.485 609.28 672.481L690.227 488.221L652.669 662.215C667.214 657.92 681.557 652.781 695.645 646.817L705.633 491.012L724.434 633.212C735.865 627.232 746.868 620.754 757.444 613.777L720.691 486.776L779.313 598.005C788.939 590.63 798.235 582.704 807.165 574.259L733.312 476.385L826.292 554.849C834.999 545.191 843.189 534.94 850.816 524.151L741.429 461.136L868.224 497.017C875.641 483.844 882.097 469.993 887.525 455.605Z" fill="#407BFF"/>
    <path d="M815.238 256.12L815.021 256.32C832.146 224.052 771.74 229.709 734.509 289.409C731.68 261.702 676.888 307.2 670.36 335.082L834.801 311.286C839.19 310.648 843.359 308.715 846.9 305.677C850.441 302.639 853.232 298.601 855 293.956C856.768 289.312 857.453 284.221 856.986 279.183C856.52 274.145 854.918 269.332 852.339 265.215L850.838 262.723C846.874 256.454 840.902 252.238 834.229 251.001C827.557 249.763 820.728 251.604 815.238 256.12Z" fill="white"/>
    <path d="M368.375 316.095C374.903 297.408 369.811 281.835 326.4 318.114C337.976 297.781 315.411 305.655 293.76 323.097C289.212 320.132 278.332 321.851 259.988 337.175C272.783 314.75 226.282 341.336 216.468 365.979L363.805 344.75C363.805 344.75 399.34 323.844 368.375 316.095Z" fill="white"/>
    <path d="M464.315 467.889C474.368 451.967 456.525 430.264 401.668 476.111C416.312 450.422 387.807 460.439 360.498 482.54C354.753 478.777 340.914 480.945 317.805 500.331C333.972 471.975 275.22 505.588 262.665 536.709L448.931 509.749C448.931 509.749 507.813 453.935 464.315 467.889Z" fill="white"/>
    <path d="M620.486 435.522C621.988 440.754 623.925 446.709 625.97 452.59C628.015 458.47 630.322 464.5 632.629 470.43C637.285 482.341 642.486 494.027 647.861 505.314C650.602 510.895 653.453 516.327 656.412 521.485C659.372 526.643 662.353 531.601 665.443 536.061C668.22 540.121 671.26 543.936 674.538 547.473C676.468 549.553 678.575 551.406 680.827 553.005L675.648 551.859C673.554 551.688 671.451 551.967 669.446 552.681C667.974 553.167 666.584 553.933 665.334 554.948C663.549 556.493 663.615 556.992 663.898 556.867C665.674 555.013 667.148 552.81 668.25 550.364C669.903 547 671.622 543.063 673.254 538.877C674.886 534.691 676.366 530.206 677.889 525.646C679.412 521.086 680.849 516.402 682.241 511.643C683.634 506.884 685.092 502.05 686.419 497.191L694.536 467.814L694.666 467.341C695.699 463.418 697.905 460.037 700.897 457.79C703.888 455.543 707.476 454.574 711.029 455.053C714.582 455.531 717.875 457.427 720.33 460.407C722.785 463.388 724.246 467.262 724.456 471.352C725.1 482.45 725.223 493.579 724.826 504.691C724.608 510.223 724.347 515.779 723.912 521.36C723.476 526.942 722.911 532.573 722.214 538.254C721.518 543.935 720.561 549.641 719.407 555.521C718.252 561.701 716.74 567.785 714.881 573.736C712.623 581.184 709.459 588.23 705.481 594.666C702.36 599.662 698.466 603.96 693.992 607.349C690.783 609.761 687.277 611.608 683.59 612.83C679.349 614.203 674.929 614.709 670.534 614.325C669.136 614.226 667.75 613.959 666.4 613.528L665.356 613.179C655.894 610.051 647.034 604.903 639.244 598.005C632.959 592.484 627.131 586.312 621.836 579.566C616.956 573.443 612.352 567.039 608.04 560.38C603.862 553.877 600.032 547.274 596.376 540.646C592.721 534.018 589.326 527.291 586.149 520.488C582.972 513.686 579.861 506.809 577.053 499.782C574.246 492.756 571.505 485.704 569.068 478.354C566.453 470.745 564.187 462.985 562.278 455.106C560.707 446.563 561.991 437.655 565.876 430.142C569.762 422.629 575.966 417.058 583.265 414.529C590.563 412 598.424 412.697 605.295 416.482C612.166 420.268 617.548 426.866 620.378 434.974L620.486 435.522Z" fill="#FFB573"/>
    <path opacity="0.1" d="M620.486 435.522C621.988 440.754 623.925 446.709 625.97 452.59C628.015 458.47 630.322 464.5 632.629 470.43C637.285 482.341 642.486 494.027 647.861 505.314C650.602 510.895 653.453 516.327 656.412 521.485C659.372 526.643 662.353 531.601 665.443 536.061C668.22 540.121 671.26 543.936 674.538 547.473C676.468 549.553 678.575 551.406 680.827 553.005L675.648 551.859C673.554 551.688 671.451 551.967 669.446 552.681C667.974 553.167 666.584 553.933 665.334 554.948C663.549 556.493 663.615 556.992 663.898 556.867C665.674 555.013 667.148 552.81 668.25 550.364C669.903 547 671.622 543.063 673.254 538.877C674.886 534.691 676.366 530.206 677.889 525.646C679.412 521.086 680.849 516.402 682.241 511.643C683.634 506.884 685.092 502.05 686.419 497.191L694.536 467.814L694.666 467.341C695.699 463.418 697.905 460.037 700.897 457.79C703.888 455.543 707.476 454.574 711.029 455.053C714.582 455.531 717.875 457.427 720.33 460.407C722.785 463.388 724.246 467.262 724.456 471.352C725.1 482.45 725.223 493.579 724.826 504.691C724.608 510.223 724.347 515.779 723.912 521.36C723.476 526.942 722.911 532.573 722.214 538.254C721.518 543.935 720.561 549.641 719.407 555.521C718.252 561.701 716.74 567.785 714.881 573.736C712.623 581.184 709.459 588.23 705.481 594.666C702.36 599.662 698.466 603.96 693.992 607.349C690.783 609.761 687.277 611.608 683.59 612.83C679.349 614.203 674.929 614.709 670.534 614.325C669.136 614.226 667.75 613.959 666.4 613.528L665.356 613.179C655.894 610.051 647.034 604.903 639.244 598.005C632.959 592.484 627.131 586.312 621.836 579.566C616.956 573.443 612.352 567.039 608.04 560.38C603.862 553.877 600.032 547.274 596.376 540.646C592.721 534.018 589.326 527.291 586.149 520.488C582.972 513.686 579.861 506.809 577.053 499.782C574.246 492.756 571.505 485.704 569.068 478.354C566.453 470.745 564.187 462.985 562.278 455.106C560.707 446.563 561.991 437.655 565.876 430.142C569.762 422.629 575.966 417.058 583.265 414.529C590.563 412 598.424 412.697 605.295 416.482C612.166 420.268 617.548 426.866 620.378 434.974L620.486 435.522Z" fill="black"/>
    <path d="M726.131 413.819L712.314 407.64C710.818 406.971 709.221 406.651 707.615 406.698C706.01 406.745 704.429 407.16 702.966 407.916C701.502 408.673 700.186 409.757 699.093 411.104C698 412.452 697.154 414.036 696.603 415.763L689.074 439.434L691.794 479.151L711.617 487.797C728.568 485.48 729.917 449.176 729.917 449.176L733.551 429.666C734.167 426.446 733.758 423.079 732.398 420.173C731.037 417.268 728.815 415.014 726.131 413.819Z" fill="#FFB573"/>
    <path opacity="0.1" d="M726.131 413.819L712.314 407.64C710.818 406.971 709.221 406.651 707.615 406.698C706.01 406.745 704.429 407.16 702.966 407.916C701.502 408.673 700.186 409.757 699.093 411.104C698 412.452 697.154 414.036 696.603 415.763L689.074 439.434L691.794 479.151L711.617 487.797C728.568 485.48 729.917 449.176 729.917 449.176L733.551 429.666C734.167 426.446 733.758 423.079 732.398 420.173C731.037 417.268 728.815 415.014 726.131 413.819Z" fill="black"/>
    <path d="M559.036 432.856C575.226 393.363 622.88 393.138 662.657 482.689C650.515 528.113 596.55 562.847 596.55 562.847C596.55 562.847 539.648 480.322 559.036 432.856Z" fill="#407BFF"/>
    <path opacity="0.3" d="M559.036 432.856C575.226 393.363 622.88 393.138 662.657 482.689C650.515 528.113 596.55 562.847 596.55 562.847C596.55 562.847 539.648 480.322 559.036 432.856Z" fill="black"/>
    <path d="M800.355 887.937C795.132 837.929 630.888 741.252 630.888 741.252L494.039 733.777C465.142 819.167 487.859 857.14 519.172 868.751C496.638 872.994 474.458 879.413 452.869 887.937C434.852 895.039 427.323 920.454 439.073 937.771C442.278 942.727 446.797 946.363 451.955 948.136C451.955 948.136 814.76 1025.98 800.355 887.937Z" fill="#263238"/>
    <path opacity="0.4" d="M800.355 887.937C795.132 837.929 630.888 741.252 630.888 741.252L494.039 733.777C465.142 819.167 487.859 857.14 519.172 868.751C496.638 872.994 474.458 879.413 452.869 887.937C434.852 895.039 427.323 920.454 439.073 937.771C442.278 942.727 446.797 946.363 451.955 948.136C451.955 948.136 814.76 1025.98 800.355 887.937Z" fill="black"/>
    <path d="M389.504 941.882L404.431 905.379C404.937 904.719 405.206 903.865 405.186 902.987C405.166 902.11 404.858 901.273 404.323 900.645L381.388 873.784C379.331 871.983 376.981 870.672 374.475 869.927C371.969 869.183 369.358 869.021 366.797 869.45C364.235 869.88 361.775 870.893 359.561 872.429C357.346 873.965 355.423 875.993 353.905 878.394C346.833 889.432 343.025 901.143 331.579 911.185C313.388 927.206 319.633 920.753 293.368 927.605C277.505 931.766 278.354 950.927 285.491 950.827C317.914 950.354 347.224 950.653 379.886 945.844C383.338 945.503 386.653 944.138 389.504 941.882Z" fill="#407BFF"/>
    <path d="M740.797 898.278C735.553 848.27 548.918 751.891 548.918 751.891L422.144 733.677C393.247 819.067 415.964 857.04 447.277 868.652C424.743 872.895 402.563 879.313 380.974 887.838C362.957 894.939 362.739 915.246 366.025 933.685C367.918 944.224 375.099 946.367 380.06 947.912C379.995 947.912 755.203 1036.32 740.797 898.278Z" fill="#263238"/>
    <path opacity="0.1" d="M527.005 929.573C483.244 929.438 439.537 926.033 396.163 919.382C396.045 919.364 395.932 919.319 395.829 919.25C395.727 919.181 395.638 919.089 395.567 918.98C395.496 918.871 395.445 918.747 395.416 918.615C395.388 918.483 395.382 918.346 395.401 918.211C395.417 918.076 395.456 917.947 395.516 917.83C395.577 917.712 395.657 917.61 395.752 917.529C395.847 917.448 395.956 917.389 396.071 917.357C396.186 917.324 396.306 917.318 396.424 917.339C398.034 917.613 556.73 944.125 658.392 910.487C609.062 901.891 439.9 847.672 445.318 788.693C445.351 788.422 445.473 788.176 445.659 788.005C445.845 787.833 446.081 787.75 446.319 787.771C446.558 787.803 446.777 787.941 446.927 788.155C447.078 788.37 447.149 788.644 447.124 788.918C444.23 820.263 493.669 849.416 535.644 868.328C586.171 891.102 641.376 906.102 662.766 909.092C662.966 909.13 663.148 909.244 663.285 909.414C663.423 909.585 663.506 909.802 663.524 910.033C663.541 910.264 663.491 910.495 663.382 910.69C663.272 910.885 663.109 911.033 662.918 911.11C622.619 925.312 572.723 929.573 527.005 929.573Z" fill="white"/>
    <path d="M601.12 409.01C561.016 397.847 539.887 394.857 513.688 393.537C501.21 392.913 488.76 395.383 477.192 400.778C465.624 406.172 455.21 414.364 446.662 424.794C438.114 435.223 431.634 447.643 427.665 461.205C423.697 474.766 422.333 489.149 423.667 503.37C435.309 630.646 419.62 709.483 417.792 737.888C493.125 794.499 612.783 771.376 632.933 748.204C655.172 643.677 647.86 528.262 644.227 477.731C642.268 450.397 626.079 415.962 601.12 409.01Z" fill="#407BFF"/>
    <g opacity="0.2" filter="url(#filter0_d_102_500)">
        <path d="M601.12 409.01C561.016 397.847 539.887 394.857 513.688 393.537C501.21 392.913 488.76 395.383 477.192 400.778C465.624 406.172 455.21 414.364 446.662 424.794C438.114 435.223 431.634 447.643 427.665 461.205C423.697 474.766 422.333 489.149 423.667 503.37C435.309 630.646 419.62 709.483 417.792 737.888C493.125 794.499 612.783 771.376 632.933 748.204C655.172 643.677 647.86 528.262 644.227 477.731C642.268 450.397 626.079 415.962 601.12 409.01Z" fill="#407BFF"/>
        <path d="M424.165 503.324L424.165 503.325C433.565 606.094 425.153 677.329 420.599 715.89C419.528 724.953 418.671 732.212 418.309 737.65C455.821 765.733 504.334 774.06 546.037 772.465C566.924 771.666 586.082 768.378 601.267 763.849C608.86 761.585 615.452 759.013 620.765 756.29C626.025 753.596 630.005 750.769 632.471 747.972C654.661 643.556 647.36 528.278 643.728 477.767C642.754 464.174 638.239 448.805 630.865 435.977C623.486 423.14 613.288 412.918 600.986 409.492C560.913 398.338 539.821 395.355 513.663 394.036L424.165 503.324ZM424.165 503.324C422.837 489.165 424.195 474.845 428.145 461.345C432.096 447.845 438.545 435.485 447.049 425.111C455.552 414.736 465.907 406.592 477.403 401.231C488.899 395.87 501.268 393.417 513.663 394.036L424.165 503.324Z" stroke="black"/>
    </g>
    <path opacity="0.3" d="M587.672 755.056H587.52C587.401 755.044 587.286 755.004 587.181 754.939C587.077 754.874 586.985 754.785 586.911 754.677C586.838 754.57 586.784 754.446 586.754 754.314C586.724 754.182 586.718 754.044 586.737 753.909C596.529 657.556 601.969 496.394 586.127 457.05C586.031 456.799 586.026 456.514 586.111 456.258C586.197 456.001 586.366 455.794 586.584 455.68C586.804 455.57 587.052 455.563 587.276 455.661C587.5 455.759 587.681 455.953 587.781 456.203C605.298 499.733 596.92 671.734 588.521 754.159C588.495 754.399 588.396 754.621 588.24 754.786C588.085 754.95 587.884 755.046 587.672 755.056Z" fill="#263238"/>
    <path d="M514.646 320.63C516.822 364.783 511.969 381.951 505.441 403.254C509.423 420.372 546.459 440.281 579.882 445.264C591.916 430.688 590.131 416.236 587.041 409.733C577.293 405.397 568.067 391.892 575.204 371.859L514.646 320.63Z" fill="#FFB573"/>
    <path opacity="0.2" d="M555.816 353.595L542.999 347.64C542.731 353.527 543.662 359.404 545.719 364.808C549.331 373.628 563.323 382.524 572.767 383.52C573.03 379.523 573.861 375.601 575.226 371.909L555.816 353.595Z" fill="black"/>
    <path d="M585.54 209.227C615.133 226.145 617.353 243.961 606.756 262.499C570.112 239.9 585.54 209.227 585.54 209.227Z" fill="#263238"/>
    <path d="M501.742 284.949C514.95 326.187 520.869 351.128 545.023 366.153C581.34 388.778 621.574 353.545 619.355 308.496C617.375 267.931 596.093 207.308 555.859 203.247C516.191 199.31 488.534 243.762 501.742 284.949Z" fill="#FFB573"/>
    <path d="M619.442 183.712C616.507 188.862 612.293 192.888 607.343 195.273C605.167 178.205 579.055 152.068 532.989 152.068C537.436 154.618 541.643 157.682 545.545 161.212C542.192 162.33 539.209 164.576 536.986 167.66C534.762 170.744 533.4 174.522 533.076 178.504C533.076 178.504 486.554 184.26 474.042 216.577C471.713 209.451 469.69 200.033 471.256 191.835C465.381 198.014 457.7 229.036 467.601 243.288C448.017 251.934 459.31 272.466 459.31 272.466C459.31 272.466 459.68 264.991 461.094 263.346C466.513 270.821 462.9 298.08 480.374 306.826C474.956 331.195 518.519 350.979 519.542 333.263C520.564 315.547 520.608 305.655 520.608 305.655C524.742 305.082 533.098 299.551 533.011 297.931C532.206 285.472 518.78 277.997 515.473 270.722C526.723 272.939 536.428 267.383 538.016 262.15C530.726 265.066 522.523 261.253 517.279 257.541C518.497 239.601 549.919 231.851 581.797 233.919C583.479 234.018 585.164 234.018 586.845 233.919C586.903 233.907 586.962 233.907 587.019 233.919C593.591 233.901 599.964 231.336 605.102 226.644C618.985 215.954 620.465 196.719 619.442 183.712Z" fill="#263238"/>
    <path d="M493.321 317.815C495.934 322.076 499.258 325.703 503.101 328.487C506.944 331.271 511.23 333.157 515.712 334.035C527.767 336.278 532.554 323.545 528.159 311.311C524.198 300.323 513.166 285.871 501.568 289.21C489.97 292.549 486.945 307.175 493.321 317.815Z" fill="#FFB573"/>
    <path d="M590.066 268.903C590.066 268.903 600.946 287.217 610.346 294.941C605.994 302.117 596.398 301.868 596.398 301.868L590.066 268.903Z" fill="#ED893E"/>
    <path d="M582.254 318.313C578.78 318.747 575.265 318.355 571.929 317.163C568.594 315.972 565.508 314.005 562.866 311.386C562.78 311.289 562.712 311.175 562.665 311.048C562.618 310.921 562.593 310.785 562.592 310.647C562.591 310.51 562.614 310.373 562.659 310.245C562.704 310.118 562.771 310.002 562.855 309.903C562.939 309.805 563.04 309.727 563.15 309.673C563.261 309.62 563.38 309.591 563.5 309.59C563.62 309.589 563.74 309.615 563.851 309.667C563.963 309.718 564.064 309.794 564.15 309.891C567.132 312.728 570.658 314.716 574.44 315.695C578.222 316.674 582.152 316.614 585.91 315.522C586.146 315.463 586.394 315.514 586.598 315.663C586.802 315.813 586.946 316.049 586.998 316.32C587.05 316.594 587.006 316.88 586.876 317.118C586.746 317.355 586.54 317.525 586.301 317.59C584.968 317.932 583.616 318.173 582.254 318.313Z" fill="#263238"/>
    <path d="M546.829 265.987C546.518 265.991 546.211 265.905 545.937 265.738C545.725 265.608 545.538 265.431 545.386 265.217C545.234 265.004 545.121 264.758 545.052 264.494C544.983 264.23 544.961 263.953 544.985 263.679C545.01 263.405 545.082 263.14 545.197 262.898C546.52 259.912 548.45 257.332 550.824 255.377C553.198 253.422 555.947 252.147 558.84 251.66C559.078 251.636 559.317 251.667 559.544 251.749C559.771 251.831 559.982 251.964 560.164 252.14C560.346 252.316 560.496 252.532 560.605 252.775C560.714 253.017 560.78 253.282 560.799 253.554C560.835 254.111 560.681 254.662 560.368 255.09C560.055 255.518 559.608 255.789 559.123 255.846C556.845 256.278 554.687 257.32 552.827 258.888C550.966 260.455 549.455 262.504 548.417 264.866C548.261 265.196 548.033 265.473 547.754 265.67C547.475 265.867 547.156 265.976 546.829 265.987Z" fill="#263238"/>
    <path d="M563.258 279.966C563.014 279.917 562.784 279.806 562.583 279.642C562.291 279.369 562.105 278.976 562.065 278.547C562.024 278.118 562.132 277.688 562.365 277.35C563.74 275.28 565.523 273.613 567.57 272.487C569.617 271.36 571.868 270.807 574.138 270.871C574.323 270.89 574.503 270.951 574.667 271.05C574.832 271.15 574.977 271.286 575.094 271.451C575.212 271.616 575.3 271.806 575.352 272.01C575.405 272.215 575.421 272.429 575.4 272.64C575.383 272.853 575.33 273.061 575.244 273.25C575.157 273.439 575.038 273.607 574.895 273.744C574.751 273.881 574.585 273.983 574.407 274.046C574.228 274.109 574.041 274.131 573.855 274.11C572.058 274.096 570.284 274.564 568.674 275.477C567.064 276.39 565.663 277.723 564.585 279.368C564.428 279.591 564.223 279.764 563.991 279.869C563.758 279.974 563.505 280.007 563.258 279.966Z" fill="#263238"/>
    <path d="M611.935 267.806C612.16 267.678 612.348 267.479 612.479 267.233C612.58 267.055 612.65 266.856 612.684 266.646C612.718 266.437 612.716 266.222 612.678 266.014C612.64 265.806 612.566 265.608 612.461 265.433C612.355 265.257 612.221 265.107 612.065 264.991C610.193 263.521 608.041 262.585 605.789 262.26C603.537 261.935 601.25 262.231 599.118 263.122C598.774 263.297 598.504 263.62 598.366 264.02C598.227 264.421 598.232 264.868 598.378 265.265C598.535 265.661 598.821 265.97 599.175 266.129C599.528 266.287 599.922 266.281 600.271 266.112C601.965 265.432 603.775 265.222 605.553 265.499C607.331 265.777 609.026 266.533 610.499 267.707C610.708 267.869 610.952 267.964 611.205 267.981C611.457 267.999 611.709 267.938 611.935 267.806Z" fill="#263238"/>
    <path d="M611.891 249.816C611.606 249.931 611.302 249.966 611.003 249.918C610.704 249.871 610.419 249.742 610.172 249.542C608.354 247.906 606.217 246.798 603.943 246.312C601.67 245.826 599.328 245.977 597.116 246.752C596.66 246.943 596.157 246.92 595.716 246.686C595.275 246.452 594.933 246.028 594.766 245.506C594.599 244.984 594.619 244.407 594.823 243.902C595.027 243.398 595.398 243.006 595.854 242.815C598.62 241.812 601.556 241.59 604.413 242.167C607.269 242.744 609.962 244.103 612.261 246.129C612.651 246.462 612.91 246.957 612.983 247.507C613.057 248.057 612.938 248.618 612.653 249.069C612.461 249.391 612.199 249.649 611.891 249.816Z" fill="#263238"/>
    <path d="M499.98 439.633C502.059 444.334 504.468 448.833 507.182 453.088C510.436 458.185 513.931 463.076 517.649 467.739C521.544 472.598 525.635 477.507 530.008 482.241C534.382 486.975 538.93 491.585 543.587 496.145C548.243 500.704 553.096 505.04 558.035 509.251C562.975 513.462 567.914 517.573 572.984 521.385C578.054 525.198 583.168 528.86 588.216 531.975C592.739 534.892 597.428 537.456 602.251 539.649L597.399 538.528C599.507 539.124 601.71 539.124 603.818 538.528C607.43 537.612 610.926 536.171 614.219 534.242C618.34 531.878 622.317 529.197 626.122 526.219C630.17 523.055 634.173 519.467 638.177 515.679C642.181 511.892 646.207 507.855 650.102 503.595C653.997 499.334 657.979 494.998 661.809 490.488C665.638 485.978 669.49 481.369 673.211 476.635C675.126 474.292 676.997 471.925 678.825 469.558L684.243 462.582L684.787 461.884C687.224 458.926 690.488 457.037 694.012 456.542C697.537 456.047 701.102 456.978 704.091 459.174C707.08 461.37 709.305 464.693 710.381 468.568C711.457 472.444 711.317 476.628 709.985 480.397C708.614 483.985 707.374 486.975 706.003 490.214C704.632 493.454 703.24 496.468 701.804 499.558C698.888 505.713 695.863 511.817 692.599 517.797C689.335 523.777 685.919 529.708 682.241 535.513C678.564 541.319 674.669 547 670.513 552.631C666.236 558.352 661.696 563.808 656.913 568.977C651.831 574.532 646.358 579.599 640.549 584.126C634.029 589.321 626.939 593.51 619.464 596.584C610.534 600.293 601.019 601.796 591.546 600.995C590.384 600.888 589.234 600.663 588.107 600.322L586.715 599.873C578.654 597.313 570.782 594.03 563.171 590.056C556.055 586.418 549.396 582.307 542.89 578.096C536.384 573.885 530.095 569.4 523.937 564.716C517.779 560.031 511.839 555.023 505.985 549.766C493.988 539.234 482.786 527.565 472.497 514.882C467.027 508.152 461.939 501.028 457.265 493.553C452.064 485.23 447.685 476.271 444.209 466.842C441.227 458.518 441.18 449.193 444.079 440.83C446.977 432.466 452.595 425.716 459.751 421.998C466.907 418.28 475.043 417.885 482.448 420.895C489.853 423.905 495.95 430.086 499.457 438.138L499.98 439.633Z" fill="#FFB573"/>
    <path d="M679.347 481.07L676.627 441.203L717.471 450.97C717.471 450.97 716.143 487.274 699.171 489.566L679.347 481.07Z" fill="#FFB573"/>
    <path d="M699.889 409.658L713.684 415.837C716.35 417.03 718.56 419.268 719.919 422.152C721.278 425.036 721.698 428.379 721.105 431.585L717.471 451.095L676.736 441.327L684.287 417.756C684.84 416.046 685.685 414.478 686.77 413.144C687.856 411.81 689.162 410.735 690.613 409.982C692.064 409.229 693.63 408.813 695.223 408.757C696.815 408.701 698.401 409.008 699.889 409.658Z" fill="#FFB573"/>
    <path d="M447.19 454.608C455.11 420.472 500.458 393.014 546.198 488.047C541.149 529.06 502.678 561.327 502.678 561.327C502.678 561.327 437.05 498.287 447.19 454.608Z" fill="white"/>
    <path d="M437.376 451.095C446.08 411.228 493.952 373.255 541.236 473.321C535.514 520.389 494.801 562.797 494.801 562.797C494.801 562.797 426.322 501.95 437.376 451.095Z" fill="#407BFF"/>
    <path opacity="0.2" d="M437.376 451.095C446.08 411.228 493.952 373.255 541.236 473.321C535.514 520.389 494.801 562.797 494.801 562.797C494.801 562.797 426.322 501.95 437.376 451.095Z" fill="black"/>
    <defs>
        <filter id="filter0_d_102_500" x="413.792" y="393.442" width="238.55" height="387.71" filterUnits="userSpaceOnUse" color-interpolation-filters="sRGB">
            <feFlood flood-opacity="0" result="BackgroundImageFix"/>
            <feColorMatrix in="SourceAlpha" type="matrix" values="0 0 0 0 0 0 0 0 0 0 0 0 0 0 0 0 0 0 127 0" result="hardAlpha"/>
            <feOffset dy="4"/>
            <feGaussianBlur stdDeviation="2"/>
            <feComposite in2="hardAlpha" operator="out"/>
            <feColorMatrix type="matrix" values="0 0 0 0 0 0 0 0 0 0 0 0 0 0 0 0 0 0 0.25 0"/>
            <feBlend mode="normal" in2="BackgroundImageFix" result="effect1_dropShadow_102_500"/>
            <feBlend mode="normal" in="SourceGraphic" in2="effect1_dropShadow_102_500" result="shape"/>
        </filter>
    </defs>
</svg>
